<?xml version="1.0" encoding="UTF-8"?>
<!DOCTYPE svg PUBLIC "-//W3C//DTD SVG 1.0//EN" "http://www.w3.org/TR/2001/REC-SVG-20010904/DTD/svg10.dtd">
<!-- Creator: CorelDRAW -->
<svg xmlns="http://www.w3.org/2000/svg" xml:space="preserve" width="2.54mm" height="2.54mm" version="1.0" style="shape-rendering:geometricPrecision; text-rendering:geometricPrecision; image-rendering:optimizeQuality; fill-rule:evenodd; clip-rule:evenodd"
viewBox="0 0 254 254"
 xmlns:xlink="http://www.w3.org/1999/xlink"
 xmlns:xodm="http://www.corel.com/coreldraw/odm/2003">
 <defs>
  <style type="text/css">
   <![CDATA[
    .fil0 {fill:#78C716;fill-rule:nonzero}
   ]]>
  </style>
 </defs>
 <g id="Слой_x0020_1">
  <metadata id="CorelCorpID_0Corel-Layer"/>
  <path class="fil0" d="M136 158c-3,0 -6,0 -10,0 -15,0 -26,0 -33,-1l0 -17 35 0c3,0 4,1 6,3 1,1 1,3 1,5l0 11 0 0zm41 -39c0,19 -2,30 -7,33 -2,2 -6,3 -12,4l0 -12c0,-5 -1,-8 -2,-9 -1,-2 -4,-3 -8,-5 4,-1 6,-4 8,-7 1,-3 2,-7 2,-14 0,-8 -2,-13 -5,-17 -3,-3 -9,-4 -17,-4l-56 0c1,-1 1,-2 2,-3 5,-4 20,-6 44,-6 24,0 39,2 44,6 5,4 7,15 7,34l0 0zm-83 -12l0 15 35 0c2,0 4,-1 5,-2 1,-1 2,-3 2,-6 0,-3 -1,-5 -2,-6 -1,-1 -3,-2 -5,-2l-35 0 0 0z"/>
 </g>
</svg>
