<?xml version="1.0" encoding="UTF-8"?>
<!DOCTYPE svg PUBLIC "-//W3C//DTD SVG 1.0//EN" "http://www.w3.org/TR/2001/REC-SVG-20010904/DTD/svg10.dtd">
<!-- Creator: CorelDRAW -->
<svg xmlns="http://www.w3.org/2000/svg" xml:space="preserve" width="5.8361mm" height="4.7444mm" version="1.0" style="shape-rendering:geometricPrecision; text-rendering:geometricPrecision; image-rendering:optimizeQuality; fill-rule:evenodd; clip-rule:evenodd"
viewBox="0 0 587 477"
 xmlns:xlink="http://www.w3.org/1999/xlink"
 xmlns:xodm="http://www.corel.com/coreldraw/odm/2003">
 <defs>
  <style type="text/css">
   <![CDATA[
    .fil0 {fill:#78C716;fill-rule:nonzero}
   ]]>
  </style>
 </defs>
 <g id="Слой_x0020_1">
  <metadata id="CorelCorpID_0Corel-Layer"/>
  <path class="fil0" d="M338 476c-18,0 -37,1 -58,1 -94,0 -159,-3 -197,-9l0 -102 211 0c15,0 27,5 35,15 6,8 9,17 9,29l0 66 0 0zm249 -237c0,113 -14,180 -41,202 -13,11 -38,19 -75,25l0 -75c0,-27 -4,-46 -12,-57 -8,-11 -24,-21 -48,-32 22,-9 38,-22 47,-40 9,-18 13,-45 13,-83 0,-48 -11,-81 -32,-100 -20,-17 -53,-26 -101,-26l-338 0c4,-7 9,-13 14,-17 29,-24 118,-36 266,-36 148,0 236,12 265,36 28,22 42,90 42,203l0 0zm-504 -73l0 88 214 0c14,0 25,-3 31,-9 6,-6 10,-18 10,-34 0,-16 -3,-28 -10,-35 -6,-7 -17,-10 -31,-10l-214 0 0 0z"/>
 </g>
</svg>
