<?xml version="1.0" encoding="UTF-8"?>
<!DOCTYPE svg PUBLIC "-//W3C//DTD SVG 1.0//EN" "http://www.w3.org/TR/2001/REC-SVG-20010904/DTD/svg10.dtd">
<!-- Creator: CorelDRAW -->
<svg xmlns="http://www.w3.org/2000/svg" xml:space="preserve" width="4.6013mm" height="3.7406mm" version="1.0" style="shape-rendering:geometricPrecision; text-rendering:geometricPrecision; image-rendering:optimizeQuality; fill-rule:evenodd; clip-rule:evenodd"
viewBox="0 0 463 377"
 xmlns:xlink="http://www.w3.org/1999/xlink"
 xmlns:xodm="http://www.corel.com/coreldraw/odm/2003">
 <defs>
  <style type="text/css">
   <![CDATA[
    .fil0 {fill:#78C716;fill-rule:nonzero}
   ]]>
  </style>
 </defs>
 <g id="Слой_x0020_1">
  <metadata id="CorelCorpID_0Corel-Layer"/>
  <path class="fil0" d="M267 376c-14,0 -30,1 -46,1 -74,0 -126,-2 -156,-7l0 -80 167 0c12,0 21,4 27,12 5,6 7,14 7,23l0 52 0 0zm197 -188c0,89 -11,142 -32,160 -10,8 -30,15 -59,19l0 -59c0,-22 -3,-36 -9,-45 -6,-8 -19,-17 -38,-25 17,-7 30,-17 37,-32 7,-14 11,-36 11,-65 0,-38 -9,-64 -26,-79 -16,-14 -42,-20 -80,-20l-267 0c3,-6 7,-10 11,-14 23,-19 93,-29 210,-29 116,0 186,9 210,28 22,18 33,71 33,160l0 0zm-398 -58l0 69 169 0c11,0 20,-2 25,-7 5,-5 8,-14 8,-27 0,-13 -3,-22 -8,-27 -5,-5 -13,-8 -24,-8l-169 0 0 0z"/>
 </g>
</svg>
